<svg width="32" height="32" viewBox="0 0 32 32" fill="none" xmlns="http://www.w3.org/2000/svg">
<g clip-path="url(#clip0_2_301)">
<rect width="32" height="32" rx="16" fill="#2E3148"/>
<path d="M10.3271 11.718C13.8563 9.29726 17.8201 7.20088 17.8201 7.20088C19.1808 6.56778 20.3577 6.06398 21.3748 5.66423L21.2129 5.01379C19.7052 5.61567 18.04 6.38991 16.3044 7.30949L16.1136 8.07862L15.9683 7.4889C15.4745 7.7545 14.9755 8.0316 14.4732 8.3196C13.0731 9.12248 11.759 9.9466 10.564 10.7617L10.3271 11.718Z" fill="#6F7390"/>
<path d="M10.3271 11.718C13.8563 9.29726 17.8201 7.20088 17.8201 7.20088C19.1808 6.56778 20.3577 6.06398 21.3748 5.66423L21.2129 5.01379C19.7052 5.61567 18.04 6.38991 16.3044 7.30949L16.1136 8.07862L15.9683 7.4889C15.4745 7.7545 14.9755 8.0316 14.4732 8.3196C13.0731 9.12248 11.759 9.9466 10.564 10.7617L10.3271 11.718Z" fill="#6F7390"/>
<path d="M15.359 18.5706C15.359 18.5706 16.4613 19.2477 18.2485 20.1046L18.1051 20.6908C16.9315 20.1147 15.7082 19.4619 14.4653 18.7417C12.9942 17.8893 11.6185 17.0139 10.3765 16.151L10.6181 15.5474C11.9801 16.529 13.6654 17.6572 15.359 18.5706Z" fill="#6F7390"/>
<path d="M12.9053 16.033C12.9053 14.2734 12.9779 12.5896 13.1104 11.0384H13.7474C13.6961 11.5229 13.647 12.0351 13.6006 12.5768C13.6006 12.5768 13.4462 17.0595 13.7912 21.3284L13.1429 21.3916C12.9898 19.7411 12.9053 17.9312 12.9053 16.033Z" fill="#6F7390"/>
<path d="M16 32C24.8366 32 32 24.8366 32 16C32 7.16344 24.8366 0 16 0C7.16344 0 0 7.16344 0 16C0 24.8366 7.16344 32 16 32Z" fill="#2E3148"/>
<path d="M15.9998 25.284C21.1272 25.284 25.2838 21.1274 25.2838 16C25.2838 10.8726 21.1272 6.71603 15.9998 6.71603C10.8724 6.71603 6.71582 10.8726 6.71582 16C6.71582 21.1274 10.8724 25.284 15.9998 25.284Z" fill="#1B1E36"/>
<path d="M16.0328 2.04123C14.699 2.04123 13.56 5.77747 13.1104 11.0384C12.9779 12.5897 12.9053 14.2734 12.9053 16.033C12.9053 17.9312 12.9898 19.7412 13.1429 21.3916C13.613 26.4601 14.73 30.0248 16.0328 30.0248C17.7599 30.0248 19.1604 23.7605 19.1604 16.033C19.1604 8.30555 17.7599 2.04123 16.0328 2.04123ZM16.2488 29.2352C16.0513 29.4986 15.8538 29.301 15.8538 29.301C15.0584 28.3794 14.6607 26.6673 14.6607 26.6673C14.2195 25.2474 13.9515 23.311 13.7912 21.3284C13.4462 17.0595 13.6006 12.5768 13.6006 12.5768C13.647 12.0352 13.6961 11.5229 13.7474 11.0384C14.4193 4.69609 15.4725 3.11362 15.8485 2.74177C15.8898 2.70092 15.9443 2.67596 16.0022 2.67128C16.0601 2.66659 16.1178 2.68249 16.1652 2.71617C16.7524 3.1323 17.245 4.87259 17.245 4.87259C18.6995 10.2718 18.5677 15.3417 18.5677 15.3417C18.6995 19.7532 17.8389 24.6915 17.8389 24.6915C17.1765 28.4444 16.2488 29.2352 16.2488 29.2352Z" fill="#6F7390"/>
<path fill-rule="evenodd" clip-rule="evenodd" d="M21.2129 10.0137C24.8802 8.54975 27.616 8.10556 28.1693 9.06994C29.0286 10.5679 24.2982 14.9003 17.5922 18.7457C10.8861 22.5911 4.75545 24.4933 3.89618 22.9953C3.21633 21.8101 6.03563 18.8505 10.5641 15.7617L10.3332 16.7143C8.68923 17.8419 7.13825 19.0407 6.12364 20.1323C6.12364 20.1323 4.83852 21.3294 4.43468 22.4777C4.43468 22.4777 4.36031 22.7483 4.68953 22.7898H4.68965C4.68965 22.7898 5.83666 23.2013 9.42181 21.9094C9.42181 21.9094 14.1335 20.1994 17.8945 17.889C17.8945 17.889 22.358 15.4798 26.3147 11.5298C26.3147 11.5298 27.5823 10.237 27.6481 9.52024C27.6542 9.46225 27.6395 9.40398 27.6067 9.35576C27.5739 9.30755 27.5251 9.2725 27.4689 9.25682C27.0289 9.13568 25.5482 9.02382 21.3749 10.6642L21.2129 10.0137ZM16.3045 12.3094C16.1927 12.3686 16.0807 12.4284 15.9684 12.4888L16.1137 13.0786L16.3045 12.3094Z" fill="#6F7390"/>
<path d="M10.3332 16.7143C13.8624 14.2935 17.8202 12.2008 17.8202 12.2008C19.1809 11.5677 20.3578 11.0639 21.3749 10.6642L21.2129 10.0137C19.7053 10.6156 18.0401 11.3898 16.3045 12.3094L16.1137 13.0786L15.9684 12.4888C15.4746 12.7544 14.9756 13.0315 14.4733 13.3195C13.0732 14.1224 11.7591 14.9465 10.5641 15.7617L10.3332 16.7143Z" fill="#6F7390"/>
<path d="M10.3332 16.7143C13.8624 14.2935 17.8202 12.2008 17.8202 12.2008C19.1809 11.5677 20.3578 11.0639 21.3749 10.6642L21.2129 10.0137C19.7053 10.6156 18.0401 11.3898 16.3045 12.3094L16.1137 13.0786L15.9684 12.4888C15.4746 12.7544 14.9756 13.0315 14.4733 13.3195C13.0732 14.1224 11.7591 14.9465 10.5641 15.7617L10.3332 16.7143Z" fill="#6F7390"/>
<path d="M28.1391 23.0453C29.0057 21.5506 24.2872 17.1983 17.6047 13.324C10.9222 9.44974 4.79294 7.52334 3.92715 9.02055C3.25184 10.1884 5.97342 13.0916 10.3765 16.151C11.6185 17.014 12.9943 17.8894 14.4654 18.7418C15.7082 19.4619 16.9315 20.1147 18.1052 20.6908C23.2458 23.214 27.4343 24.2643 28.1391 23.0453ZM4.50136 9.59809C4.37336 9.2946 4.64356 9.22151 4.64356 9.22151C5.83985 8.99559 7.52024 9.51041 7.52024 9.51041C12.0918 10.5514 20.2434 15.6576 20.2434 15.6576C26.5197 20.0494 27.4822 21.9839 27.6265 22.533C27.6412 22.5893 27.6355 22.649 27.6104 22.7015C27.5853 22.7541 27.5425 22.7961 27.4895 22.8201C26.8351 23.1198 25.0822 22.6733 25.0822 22.6733C22.4085 21.9564 19.9997 20.9442 18.2485 20.1046C16.4614 19.2477 15.3591 18.5706 15.3591 18.5706C13.6655 17.6572 11.9801 16.5291 10.6182 15.5474C8.85821 14.2789 7.63825 13.2551 7.63825 13.2551C4.72139 10.7991 4.50225 9.60142 4.50225 9.60142L4.50136 9.59809Z" fill="#6F7390"/>
<path d="M22.7487 10.6666C23.276 10.6666 23.7034 10.2244 23.7034 9.67896C23.7034 9.1335 23.276 8.69131 22.7487 8.69131C22.2214 8.69131 21.7939 9.1335 21.7939 9.67896C21.7939 10.2244 22.2214 10.6666 22.7487 10.6666Z" fill="#B7B9C8"/>
<path d="M7.07829 14.0247C7.60558 14.0247 8.03304 13.5825 8.03304 13.0371C8.03304 12.4916 7.60558 12.0494 7.07829 12.0494C6.55099 12.0494 6.12354 12.4916 6.12354 13.0371C6.12354 13.5825 6.55099 14.0247 7.07829 14.0247Z" fill="#B7B9C8"/>
<path d="M14.0578 26.1399C14.5851 26.1399 15.0125 25.6977 15.0125 25.1523C15.0125 24.6068 14.5851 24.1646 14.0578 24.1646C13.5305 24.1646 13.103 24.6068 13.103 25.1523C13.103 25.6977 13.5305 26.1399 14.0578 26.1399Z" fill="#B7B9C8"/>
<path d="M17.8052 20.3422H14.3877L16.9727 9.92532H20.3902L17.8052 20.3422Z" fill="#63E6CB"/>
<path d="M13.0733 22.0747H9.65576L12.2407 11.6578H15.6582L13.0733 22.0747Z" fill="#5CBFF2"/>
<path d="M14.3877 20.3422H17.8051L15.6582 11.6578H12.2407L14.3877 20.3422Z" fill="#60F0FC"/>
<path d="M18.9272 17.8269H22.3447L20.3902 9.92532H16.9727L18.9272 17.8269Z" fill="#60FCB1"/>
<path opacity="0.05" d="M18.6884 16.8663L16.4224 12.1423L16.9725 9.92532L18.6884 16.8663Z" fill="black"/>
<path opacity="0.05" d="M13.9565 18.5988L11.6904 13.8748L12.2406 11.6578L13.9565 18.5988Z" fill="black"/>
</g>
<defs>
<clipPath id="clip0_2_301">
<rect width="32" height="32" rx="16" fill="white"/>
</clipPath>
</defs>
</svg>
